<svg id="visual" viewBox="0 0 900 600" width="900" height="600" xmlns="http://www.w3.org/2000/svg" xmlns:xlink="http://www.w3.org/1999/xlink" version="1.1"><rect x="0" y="0" width="900" height="600" fill="#800080"></rect><defs><linearGradient id="grad1_0" x1="33.3%" y1="0%" x2="100%" y2="100%"><stop offset="20%" stop-color="#ffffff" stop-opacity="1"></stop><stop offset="80%" stop-color="#ffffff" stop-opacity="1"></stop></linearGradient></defs><defs><linearGradient id="grad1_1" x1="33.3%" y1="0%" x2="100%" y2="100%"><stop offset="20%" stop-color="#ffffff" stop-opacity="1"></stop><stop offset="80%" stop-color="#ecd8e9" stop-opacity="1"></stop></linearGradient></defs><defs><linearGradient id="grad1_2" x1="33.3%" y1="0%" x2="100%" y2="100%"><stop offset="20%" stop-color="#d8b1d4" stop-opacity="1"></stop><stop offset="80%" stop-color="#ecd8e9" stop-opacity="1"></stop></linearGradient></defs><defs><linearGradient id="grad1_3" x1="33.3%" y1="0%" x2="100%" y2="100%"><stop offset="20%" stop-color="#d8b1d4" stop-opacity="1"></stop><stop offset="80%" stop-color="#c38bbf" stop-opacity="1"></stop></linearGradient></defs><defs><linearGradient id="grad1_4" x1="33.3%" y1="0%" x2="100%" y2="100%"><stop offset="20%" stop-color="#ad65a9" stop-opacity="1"></stop><stop offset="80%" stop-color="#c38bbf" stop-opacity="1"></stop></linearGradient></defs><defs><linearGradient id="grad1_5" x1="33.3%" y1="0%" x2="100%" y2="100%"><stop offset="20%" stop-color="#ad65a9" stop-opacity="1"></stop><stop offset="80%" stop-color="#973e95" stop-opacity="1"></stop></linearGradient></defs><defs><linearGradient id="grad1_6" x1="33.3%" y1="0%" x2="100%" y2="100%"><stop offset="20%" stop-color="#800080" stop-opacity="1"></stop><stop offset="80%" stop-color="#973e95" stop-opacity="1"></stop></linearGradient></defs><defs><linearGradient id="grad2_0" x1="0%" y1="0%" x2="66.7%" y2="100%"><stop offset="20%" stop-color="#ffffff" stop-opacity="1"></stop><stop offset="80%" stop-color="#ffffff" stop-opacity="1"></stop></linearGradient></defs><defs><linearGradient id="grad2_1" x1="0%" y1="0%" x2="66.7%" y2="100%"><stop offset="20%" stop-color="#ecd8e9" stop-opacity="1"></stop><stop offset="80%" stop-color="#ffffff" stop-opacity="1"></stop></linearGradient></defs><defs><linearGradient id="grad2_2" x1="0%" y1="0%" x2="66.7%" y2="100%"><stop offset="20%" stop-color="#ecd8e9" stop-opacity="1"></stop><stop offset="80%" stop-color="#d8b1d4" stop-opacity="1"></stop></linearGradient></defs><defs><linearGradient id="grad2_3" x1="0%" y1="0%" x2="66.7%" y2="100%"><stop offset="20%" stop-color="#c38bbf" stop-opacity="1"></stop><stop offset="80%" stop-color="#d8b1d4" stop-opacity="1"></stop></linearGradient></defs><defs><linearGradient id="grad2_4" x1="0%" y1="0%" x2="66.7%" y2="100%"><stop offset="20%" stop-color="#c38bbf" stop-opacity="1"></stop><stop offset="80%" stop-color="#ad65a9" stop-opacity="1"></stop></linearGradient></defs><defs><linearGradient id="grad2_5" x1="0%" y1="0%" x2="66.7%" y2="100%"><stop offset="20%" stop-color="#973e95" stop-opacity="1"></stop><stop offset="80%" stop-color="#ad65a9" stop-opacity="1"></stop></linearGradient></defs><defs><linearGradient id="grad2_6" x1="0%" y1="0%" x2="66.7%" y2="100%"><stop offset="20%" stop-color="#973e95" stop-opacity="1"></stop><stop offset="80%" stop-color="#800080" stop-opacity="1"></stop></linearGradient></defs><g transform="translate(900, 0)"><path d="M0 430C-44.1 422.8 -88.2 415.5 -131.6 405.2C-175.1 394.8 -217.8 381.2 -261.6 360C-305.3 338.8 -350.2 309.9 -370.5 269.2C-390.9 228.5 -386.8 176 -397.5 129.2C-408.3 82.3 -434 41.2 -459.7 0L0 0Z" fill="#8c278a"></path><path d="M0 368.6C-37.8 362.4 -75.6 356.2 -112.8 347.3C-150.1 338.4 -186.7 326.8 -224.2 308.6C-261.7 290.4 -300.2 265.6 -317.6 230.7C-335 195.9 -331.5 150.9 -340.7 110.7C-350 70.6 -372 35.3 -394 0L0 0Z" fill="#a2529f"></path><path d="M0 307.1C-31.5 302 -63 296.8 -94 289.4C-125 282 -155.6 272.3 -186.8 257.2C-218.1 242 -250.1 221.4 -264.7 192.3C-279.2 163.2 -276.3 125.7 -284 92.3C-291.7 58.8 -310 29.4 -328.4 0L0 0Z" fill="#b879b4"></path><path d="M0 245.7C-25.2 241.6 -50.4 237.4 -75.2 231.5C-100 225.6 -124.4 217.8 -149.5 205.7C-174.5 193.6 -200.1 177.1 -211.7 153.8C-223.4 130.6 -221 100.6 -227.2 73.8C-233.3 47 -248 23.5 -262.7 0L0 0Z" fill="#cd9ec9"></path><path d="M0 184.3C-18.9 181.2 -37.8 178.1 -56.4 173.6C-75 169.2 -93.3 163.4 -112.1 154.3C-130.9 145.2 -150.1 132.8 -158.8 115.4C-167.5 97.9 -165.8 75.4 -170.4 55.4C-175 35.3 -186 17.6 -197 0L0 0Z" fill="#e2c5df"></path><path d="M0 122.9C-12.6 120.8 -25.2 118.7 -37.6 115.8C-50 112.8 -62.2 108.9 -74.7 102.9C-87.2 96.8 -100.1 88.5 -105.9 76.9C-111.7 65.3 -110.5 50.3 -113.6 36.9C-116.7 23.5 -124 11.8 -131.3 0L0 0Z" fill="#f5ebf4"></path><path d="M0 61.4C-6.3 60.4 -12.6 59.4 -18.8 57.9C-25 56.4 -31.1 54.5 -37.4 51.4C-43.6 48.4 -50 44.3 -52.9 38.5C-55.8 32.6 -55.3 25.1 -56.8 18.5C-58.3 11.8 -62 5.9 -65.7 0L0 0Z" fill="#ffffff"></path></g><g transform="translate(0, 600)"><path d="M0 -452C46.6 -448.2 93.2 -444.4 140.9 -433.7C188.7 -423 237.6 -405.3 270.2 -371.9C302.9 -338.5 319.2 -289.3 340.6 -247.5C362 -205.6 388.3 -171 403.2 -131C418.1 -91 421.6 -45.5 425 0L0 0Z" fill="#8c278a"></path><path d="M0 -387.4C39.9 -384.2 79.9 -380.9 120.8 -371.7C161.7 -362.5 203.6 -347.4 231.6 -318.8C259.6 -290.1 273.6 -248 291.9 -212.1C310.3 -176.2 332.9 -146.6 345.6 -112.3C358.4 -78 361.3 -39 364.3 0L0 0Z" fill="#a2529f"></path><path d="M0 -322.9C33.3 -320.1 66.5 -317.4 100.7 -309.8C134.8 -302.1 169.7 -289.5 193 -265.7C216.3 -241.8 228 -206.7 243.3 -176.8C258.6 -146.9 277.4 -122.2 288 -93.6C298.7 -65 301.1 -32.5 303.6 0L0 0Z" fill="#b879b4"></path><path d="M0 -258.3C26.6 -256.1 53.2 -253.9 80.5 -247.8C107.8 -241.7 135.8 -231.6 154.4 -212.5C173.1 -193.4 182.4 -165.3 194.6 -141.4C206.8 -117.5 221.9 -97.7 230.4 -74.9C238.9 -52 240.9 -26 242.9 0L0 0Z" fill="#cd9ec9"></path><path d="M0 -193.7C20 -192.1 39.9 -190.5 60.4 -185.9C80.9 -181.3 101.8 -173.7 115.8 -159.4C129.8 -145.1 136.8 -124 146 -106.1C155.1 -88.1 166.4 -73.3 172.8 -56.2C179.2 -39 180.7 -19.5 182.1 0L0 0Z" fill="#e2c5df"></path><path d="M0 -129.1C13.3 -128.1 26.6 -127 40.3 -123.9C53.9 -120.8 67.9 -115.8 77.2 -106.3C86.5 -96.7 91.2 -82.7 97.3 -70.7C103.4 -58.7 111 -48.9 115.2 -37.4C119.5 -26 120.4 -13 121.4 0L0 0Z" fill="#f5ebf4"></path><path d="M0 -64.6C6.7 -64 13.3 -63.5 20.1 -62C27 -60.4 33.9 -57.9 38.6 -53.1C43.3 -48.4 45.6 -41.3 48.7 -35.4C51.7 -29.4 55.5 -24.4 57.6 -18.7C59.7 -13 60.2 -6.5 60.7 0L0 0Z" fill="#ffffff"></path></g></svg>